<svg width="99" height="99" viewBox="0 0 99 99" fill="none" xmlns="http://www.w3.org/2000/svg">
<path d="M49.5 0C22.206 0 0 22.206 0 49.5C0 76.794 22.206 99 49.5 99C76.794 99 99 76.794 99 49.5C99 22.206 76.794 0 49.5 0ZM60.9683 28.8956L66.7036 33.9075L49.1859 53.9217L43.4505 48.4338L60.9683 28.8956ZM34.2526 70.1163L17.4606 53.3077L22.8462 47.9222L39.6405 64.7308L34.2526 70.1163ZM49.7213 70.3043L32.7343 53.3077L38.1221 47.9246L49.3453 59.1596L75.7921 28.8956L81.5275 33.9075L49.7213 70.3043Z" fill="#7168DD"/>
</svg>
