<svg xmlns="http://www.w3.org/2000/svg" style="display: none;">
  <!-- US Flag Icon -->
  <symbol id="en-us" viewBox="0 0 24 24">
    <rect width="24" height="24" fill="#B22234"/>
    <rect width="24" height="1.85" fill="#FFFFFF"/>
    <rect y="3.7" width="24" height="1.85" fill="#FFFFFF"/>
    <rect y="7.4" width="24" height="1.85" fill="#FFFFFF"/>
    <rect y="11.1" width="24" height="1.85" fill="#FFFFFF"/>
    <rect y="14.8" width="24" height="1.85" fill="#FFFFFF"/>
    <rect y="18.5" width="24" height="1.85" fill="#FFFFFF"/>
    <rect y="22.2" width="24" height="1.85" fill="#FFFFFF"/>
    <rect width="9.6" height="12.95" fill="#3C3B6E"/>
    <g fill="#FFFFFF">
      <circle cx="1.2" cy="1.2" r="0.3"/>
      <circle cx="2.4" cy="1.2" r="0.3"/>
      <circle cx="3.6" cy="1.2" r="0.3"/>
      <circle cx="4.8" cy="1.2" r="0.3"/>
      <circle cx="6" cy="1.2" r="0.3"/>
      <circle cx="7.2" cy="1.2" r="0.3"/>
      <circle cx="8.4" cy="1.2" r="0.3"/>
      <circle cx="1.2" cy="2.4" r="0.3"/>
      <circle cx="2.4" cy="2.4" r="0.3"/>
      <circle cx="3.6" cy="2.4" r="0.3"/>
      <circle cx="4.8" cy="2.4" r="0.3"/>
      <circle cx="6" cy="2.4" r="0.3"/>
      <circle cx="7.2" cy="2.4" r="0.3"/>
      <circle cx="8.4" cy="2.4" r="0.3"/>
    </g>
  </symbol>

  <!-- Spanish Flag Icon -->
  <symbol id="es-es" viewBox="0 0 24 24">
    <rect width="24" height="6" fill="#C60B1E"/>
    <rect y="6" width="24" height="6" fill="#FFC400"/>
    <rect y="12" width="24" height="6" fill="#C60B1E"/>
    <rect y="18" width="24" height="6" fill="#C60B1E"/>
  </symbol>

  <!-- French Flag Icon -->
  <symbol id="fr-fr" viewBox="0 0 24 24">
    <rect width="8" height="24" fill="#002395"/>
    <rect x="8" width="8" height="24" fill="#FFFFFF"/>
    <rect x="16" width="8" height="24" fill="#ED2939"/>
  </symbol>

  <!-- Croatian Flag Icon -->
  <symbol id="hr-hr" viewBox="0 0 24 24">
    <rect width="24" height="8" fill="#FF0000"/>
    <rect y="8" width="24" height="8" fill="#FFFFFF"/>
    <rect y="16" width="24" height="8" fill="#0000FF"/>
    <rect x="2" y="2" width="4" height="4" fill="#FFFFFF"/>
    <rect x="3" y="3" width="2" height="2" fill="#FF0000"/>
    <rect x="2" y="6" width="4" height="4" fill="#FFFFFF"/>
    <rect x="3" y="7" width="2" height="2" fill="#FF0000"/>
    <rect x="2" y="10" width="4" height="4" fill="#FFFFFF"/>
    <rect x="3" y="11" width="2" height="2" fill="#FF0000"/>
    <rect x="2" y="14" width="4" height="4" fill="#FFFFFF"/>
    <rect x="3" y="15" width="2" height="2" fill="#FF0000"/>
    <rect x="2" y="18" width="4" height="4" fill="#FFFFFF"/>
    <rect x="3" y="19" width="2" height="2" fill="#FF0000"/>
  </symbol>

  <!-- Calendar Icon -->
  <symbol id="calendar" viewBox="0 0 24 24">
    <path d="M19 3h-1V1h-2v2H8V1H6v2H5c-1.11 0-1.99.9-1.99 2L3 19c0 1.1.89 2 2 2h14c1.1 0 2-.9 2-2V5c0-1.1-.9-2-2-2zm0 16H5V8h14v11zM7 10h5v5H7z"/>
  </symbol>

  <!-- Time Icon -->
  <symbol id="time" viewBox="0 0 24 24">
    <path d="M11.99 2C6.47 2 2 6.48 2 12s4.47 10 9.99 10C17.52 22 22 17.52 22 12S17.52 2 11.99 2zM12 20c-4.42 0-8-3.58-8-8s3.58-8 8-8 8 3.58 8 8-3.58 8-8 8z"/>
    <path d="M12.5 7H11v6l5.25 3.15.75-1.23-4.5-2.67z"/>
  </symbol>

  <!-- Calendar Plus Icon -->
  <symbol id="calendar-plus" viewBox="0 0 24 24">
    <path d="M19 3h-1V1h-2v2H8V1H6v2H5c-1.11 0-1.99.9-1.99 2L3 19c0 1.1.89 2 2 2h14c1.1 0 2-.9 2-2V5c0-1.1-.9-2-2-2zm0 16H5V8h14v11zM7 10h5v5H7z"/>
    <path d="M16 11h-3V8h-2v3H8v2h3v3h2v-3h3z"/>
  </symbol>

  <!-- Clock Icon -->
  <symbol id="clock" viewBox="0 0 24 24">
    <path d="M12 2C6.5 2 2 6.5 2 12s4.5 10 10 10 10-4.5 10-10S17.5 2 12 2zm4.2 14.2L11 13V7h1.5v5.2l4.5 2.7-.8 1.3z"/>
  </symbol>

  <!-- Date Range Icon -->
  <symbol id="date-range" viewBox="0 0 24 24">
    <path d="M19 3h-1V1h-2v2H8V1H6v2H5c-1.11 0-1.99.9-1.99 2L3 19c0 1.1.89 2 2 2h14c1.1 0 2-.9 2-2V5c0-1.1-.9-2-2-2zm0 16H5V8h14v11zM7 10h5v5H7z"/>
    <path d="M17 10h2v2h-2zM17 13h2v2h-2zM17 16h2v2h-2z"/>
  </symbol>

  <!-- Save Icon -->
  <symbol id="save" viewBox="0 0 24 24">
    <path d="M17 3H5c-1.11 0-2 .9-2 2v14c0 1.1.89 2 2 2h14c1.1 0 2-.9 2-2V7l-4-4zm-5 16c-1.66 0-3-1.34-3-3s1.34-3 3-3 3 1.34 3 3-1.34 3-3 3zm3-10H5V5h10v4z"/>
  </symbol>

  <!-- Check Icon -->
  <symbol id="check" viewBox="0 0 24 24">
    <path d="M9 16.17L4.83 12l-1.42 1.41L9 19 21 7l-1.41-1.41z"/>
  </symbol>

  <!-- Text Icon -->
  <symbol id="text" viewBox="0 0 24 24">
    <path d="M5 4v3h5.5v12h3V7H19V4z"/>
  </symbol>

  <!-- Request Icon -->
  <symbol id="request" viewBox="0 0 24 24">
    <path d="M12 2l3.09 6.26L22 9.27l-5 4.87 1.18 6.88L12 17.77l-6.18 3.25L7 14.14 2 9.27l6.91-1.01L12 2z"/>
  </symbol>

  <!-- Flag Icon -->
  <symbol id="flag" viewBox="0 0 24 24">
    <path d="M14.4 6L14 4H5v17h2v-7h5.6l.4 2h7V6z"/>
  </symbol>
</svg>
